<svg xmlns="http://www.w3.org/2000/svg" version="1.0" viewBox="0 0 327 240">
  <path fill="#0057B8" d="M80.5 13.6A82.2 82.2 0 0 0 50 29.7C38.6 40.2 31.4 59.8 27.5 90.5c-1.6 12.7-1.1 18.8 2.9 39.5 2.7 14.3 9.7 37 16.8 55 6.3 16 17.5 25.6 38.2 32.6 18.7 6.4 37.5 8 100.6 8.9 48.9.7 54.3.2 66-5.3 8.1-3.8 16.7-13 21.8-23.3a381.9 381.9 0 0 0 22.7-72.4l3-13.5c3.5-14.2 2.3-37.8-2.5-51.5L293.5 50A55.2 55.2 0 0 0 268 20.1c-10.6-5.7-18.4-7.1-38.6-7.1-22.1 0-35.7 2.5-68.2 12.4l-11.3 3.4-10.8-4.9c-17.8-7.9-36-13-45.7-12.8-2.7.1-8.5 1.2-12.9 2.5zm34 11.7c3.9 1.4 14.9 5.9 24.5 10 33.6 14.3 44.9 17.2 70.6 18.3 16.6.7 17.2.6 19.3-1.5 5-5 1.5-6.5-22.9-9.6-19.4-2.4-33.9-5.3-38.3-7.7-1.8-.9-1.9-1.1-.4-2 2.6-1.4 26-6.5 38.7-8.4 6.8-1 17.8-1.8 27-1.8 14.6-.1 15.9.1 22.3 2.6a43 43 0 0 1 18.9 13.1 113.4 113.4 0 0 1 16.9 46.9c1.1 8.5 1 10.9-.5 19.5-8.5 46.6-21.1 81.8-34.1 95-7.8 7.9-11 8.7-37.5 8.8-26.2 0-34.9-1.9-72.4-16.1a157.8 157.8 0 0 0-40.4-11.5c-10.8-1.4-29.6-.6-37.7 1.7-10.7 2.9-10.2 3-12.3-1.2-5-9.9-10.8-28.5-15.9-50.6-3.2-14.1-3.7-18-3.7-28.3.1-11.4.3-12.8 5.2-29.7 6.3-21.6 9.5-28.3 17.8-36.5a46 46 0 0 1 37.9-13.9 51 51 0 0 1 17 2.9z"/>
  <path fill="#fff" d="M207.5 208.2c-12.8-.6-22.4-2.5-37-7.4-6.4-2-20-7-25.2-9.2-14-5.6-25.3-8.8-38.7-10.8-4.5-.7-15.3-.9-22.2-.5-7.6.5-12.3 1.2-18.8 2.9l-6 1.4c-1.3 0-2.2-1-3.8-4.4a251 251 0 0 1-13.5-41.8c-4.3-17.6-5.2-23-5.5-33-.2-11.9.3-15.4 4.3-29.6 6.9-24 10-30.6 18.7-39.2a46.7 46.7 0 0 1 38.6-14c10.9.6 13 1.3 38.9 12.2 37.3 15.7 46.2 17.9 76.5 19.1 12.3.5 13.8.3 16.1-2.7 3.4-4.3-.3-5.7-22.1-8.6a281.6 281.6 0 0 1-32.6-5.5c-4.7-1.2-8.7-2.7-8.7-3.4 0-.5 2.3-1.4 7.4-2.6 9-2.3 24.7-5.5 32.2-6.5a201 201 0 0 1 44-1c2.7.7 8.7 3 11.5 4.6 6.1 3.3 11.2 8 14.3 13.3 8.7 14.7 14 31.2 15.6 48.7.4 4.5 0 8-1.4 16.2-7 38-17.5 70-28.2 86.1a42.8 42.8 0 0 1-11.6 12.2c-3.5 2-7.9 3-16.5 3.4-5.1.2-21.2.3-26.3 0z"/>
</svg>
